<svg width="69" height="22" viewBox="0 0 69 22" fill="none" xmlns="http://www.w3.org/2000/svg">
<path d="M7.49275 16L4.57694 10.7076H3.75812V16H0.343026V1.98015H6.07479C7.17987 1.98015 8.11852 2.1732 8.89074 2.55932C9.67628 2.94543 10.2621 3.47799 10.6482 4.15702C11.0343 4.82273 11.2274 5.56832 11.2274 6.3938C11.2274 7.3258 10.9611 8.15794 10.4285 8.89022C9.90928 9.6225 9.13705 10.1418 8.11186 10.448L11.3472 16H7.49275ZM3.75812 8.29108H5.87508C6.50084 8.29108 6.96684 8.13797 7.27307 7.83174C7.59261 7.52551 7.75238 7.0928 7.75238 6.5336C7.75238 6.00104 7.59261 5.58164 7.27307 5.27541C6.96684 4.96919 6.50084 4.81607 5.87508 4.81607H3.75812V8.29108ZM18.4439 16.1598C17.3521 16.1598 16.3669 15.9268 15.4881 15.4608C14.6227 14.9948 13.937 14.3291 13.4311 13.4636C12.9385 12.5982 12.6922 11.5863 12.6922 10.428C12.6922 9.28299 12.9451 8.27776 13.4511 7.41234C13.957 6.5336 14.6493 5.86124 15.5281 5.39524C16.4068 4.92924 17.3921 4.69624 18.4838 4.69624C19.5756 4.69624 20.5608 4.92924 21.4396 5.39524C22.3183 5.86124 23.0107 6.5336 23.5166 7.41234C24.0225 8.27776 24.2755 9.28299 24.2755 10.428C24.2755 11.573 24.0159 12.5849 23.4966 13.4636C22.9907 14.3291 22.2917 14.9948 21.3996 15.4608C20.5209 15.9268 19.5357 16.1598 18.4439 16.1598ZM18.4439 13.204C19.0963 13.204 19.6488 12.9644 20.1015 12.4851C20.5675 12.0057 20.8005 11.3201 20.8005 10.428C20.8005 9.53596 20.5742 8.85027 20.1215 8.37096C19.6821 7.89165 19.1362 7.652 18.4838 7.652C17.8181 7.652 17.2656 7.89165 16.8262 8.37096C16.3868 8.83696 16.1672 9.52264 16.1672 10.428C16.1672 11.3201 16.3802 12.0057 16.8062 12.4851C17.2456 12.9644 17.7915 13.204 18.4439 13.204ZM29.5024 1.22124V16H26.0873V1.22124H29.5024ZM35.3923 1.22124V16H31.9772V1.22124H35.3923ZM39.5848 3.69768C38.9856 3.69768 38.493 3.52459 38.1069 3.17843C37.7341 2.81894 37.5477 2.37957 37.5477 1.86032C37.5477 1.32775 37.7341 0.888384 38.1069 0.542214C38.493 0.182731 38.9856 0.00298896 39.5848 0.00298896C40.1706 0.00298896 40.6499 0.182731 41.0227 0.542214C41.4088 0.888384 41.6019 1.32775 41.6019 1.86032C41.6019 2.37957 41.4088 2.81894 41.0227 3.17843C40.6499 3.52459 40.1706 3.69768 39.5848 3.69768ZM41.2823 4.85602V16H37.8672V4.85602H41.2823ZM50.5474 4.73619C51.8522 4.73619 52.8907 5.16224 53.663 6.01435C54.4485 6.85315 54.8413 8.01148 54.8413 9.48936V16H51.4461V9.9487C51.4461 9.2031 51.2531 8.62393 50.867 8.21119C50.4809 7.79845 49.9616 7.59208 49.3092 7.59208C48.6568 7.59208 48.1376 7.79845 47.7515 8.21119C47.3653 8.62393 47.1723 9.2031 47.1723 9.9487V16H43.7572V4.85602H47.1723V6.33389C47.5185 5.84127 47.9845 5.45515 48.5703 5.17556C49.1561 4.88264 49.8152 4.73619 50.5474 4.73619ZM61.4483 4.69624C62.2339 4.69624 62.9196 4.85601 63.5054 5.17556C64.1045 5.4951 64.5639 5.91449 64.8834 6.43375V4.85602H68.2985V15.98C68.2985 17.0052 68.0921 17.9306 67.6794 18.756C67.28 19.5948 66.6608 20.2605 65.822 20.7532C64.9966 21.2458 63.9647 21.4921 62.7265 21.4921C61.0755 21.4921 59.7375 21.0993 58.7123 20.3138C57.6871 19.5416 57.1012 18.4898 56.9548 17.1583H60.3299C60.4365 17.5844 60.6894 17.9172 61.0888 18.1569C61.4883 18.4099 61.9809 18.5364 62.5667 18.5364C63.2724 18.5364 63.8316 18.33 64.2443 17.9172C64.6704 17.5178 64.8834 16.8721 64.8834 15.98V14.4023C64.5505 14.9215 64.0912 15.3476 63.5054 15.6805C62.9196 16 62.2339 16.1598 61.4483 16.1598C60.5297 16.1598 59.6975 15.9268 58.9519 15.4608C58.2063 14.9815 57.6138 14.3091 57.1745 13.4437C56.7484 12.5649 56.5354 11.5531 56.5354 10.408C56.5354 9.26302 56.7484 8.25779 57.1745 7.39237C57.6138 6.52695 58.2063 5.86124 58.9519 5.39524C59.6975 4.92924 60.5297 4.69624 61.4483 4.69624ZM64.8834 10.428C64.8834 9.5759 64.6437 8.90353 64.1644 8.41091C63.6984 7.91828 63.1259 7.67197 62.4469 7.67197C61.7679 7.67197 61.1887 7.91828 60.7094 8.41091C60.2434 8.89022 60.0104 9.55593 60.0104 10.408C60.0104 11.2601 60.2434 11.9392 60.7094 12.4451C61.1887 12.9377 61.7679 13.184 62.4469 13.184C63.1259 13.184 63.6984 12.9377 64.1644 12.4451C64.6437 11.9525 64.8834 11.2801 64.8834 10.428Z" fill="#4A494F"/>
</svg>
